PathFileType	4	(X/Y/Z)	 New Session 106.trc
DataRate	CameraRate	NumFrames	NumMarkers	Units	OrigDataRate	OrigDataStartFrame	OrigNumFrames
100	100	9	14	m	100	544	724
Frame#	Time	C7			T8			IJ			PX			AA			AC			AI			TS			SC			GH			LE			ME			US			RS			
		X1	Y1	Z1	X2	Y2	Z2	X3	Y3	Z3	X4	Y4	Z4	X5	Y5	Z5	X6	Y6	Z6	X7	Y7	Z7	X8	Y8	Z8	X9	Y9	Z9	X10	Y10	Z10	X11	Y11	Z11	X12	Y12	Z12	X13	Y13	Z13	X14	Y14	Z14	
544	5.4400	0.025062	0.105331	0.152569	0.021017	-0.108852	0.225866	0.012419	-0.002063	-0.010969	0.017186	-0.145893	-0.075031	0.216138	0.014525	0.155058	0.175005	0.052636	0.075642	0.098910	0.030755	0.199616	0.098735	-0.090746	0.232116	0.036745	0.007070	-0.005906	0.232590	0.025588	0.116050	0.303311	-0.263660	0.100600	0.217038	-0.310029	0.118109	0.278139	-0.370066	-0.151819	0.234288	-0.302865	-0.154148	
545	5.4500	0.025085	0.105304	0.152611	0.021050	-0.108876	0.225874	0.012488	-0.002044	-0.010946	0.017204	-0.145897	-0.074996	0.216119	0.014494	0.155098	0.175024	0.052701	0.075722	0.098923	0.030671	0.199628	0.098772	-0.090854	0.231969	0.036807	0.007090	-0.005877	0.232635	0.025651	0.116102	0.303684	-0.263499	0.100375	0.217465	-0.310010	0.117790	0.278565	-0.369775	-0.152119	0.234872	-0.302510	-0.154456	
546	5.4600	0.025111	0.105289	0.152640	0.021084	-0.108898	0.225883	0.012531	-0.002033	-0.010927	0.017187	-0.145907	-0.074965	0.216118	0.014485	0.155105	0.175032	0.052772	0.075775	0.098923	0.030610	0.199637	0.098800	-0.090952	0.231843	0.036863	0.007104	-0.005852	0.232690	0.025716	0.116139	0.304031	-0.263343	0.100169	0.217871	-0.309965	0.117454	0.279023	-0.369474	-0.152400	0.235445	-0.302173	-0.154750	
547	5.4700	0.025153	0.105287	0.152655	0.021121	-0.108916	0.225890	0.012549	-0.002040	-0.010908	0.017152	-0.145924	-0.074942	0.216145	0.014493	0.155078	0.175031	0.052843	0.075799	0.098957	0.030565	0.199633	0.098836	-0.091022	0.231783	0.036904	0.007095	-0.005833	0.232750	0.025769	0.116157	0.304346	-0.263196	0.099972	0.218247	-0.309890	0.117135	0.279563	-0.369151	-0.152675	0.235999	-0.301859	-0.155026	
548	5.4800	0.025203	0.105290	0.152667	0.021163	-0.108930	0.225893	0.012545	-0.002057	-0.010886	0.017113	-0.145944	-0.074926	0.216188	0.014507	0.155034	0.175025	0.052904	0.075802	0.099028	0.030521	0.199616	0.098887	-0.091058	0.231796	0.036916	0.007063	-0.005823	0.232800	0.025805	0.116153	0.304630	-0.263059	0.099774	0.218570	-0.309801	0.116862	0.280175	-0.368821	-0.152949	0.236533	-0.301569	-0.155286	
549	5.4900	0.025249	0.105289	0.152682	0.021210	-0.108938	0.225889	0.012527	-0.002069	-0.010867	0.017075	-0.145962	-0.074914	0.216237	0.014527	0.154989	0.175013	0.052946	0.075792	0.099093	0.030477	0.199587	0.098955	-0.091064	0.231848	0.036900	0.007025	-0.005812	0.232824	0.025837	0.116120	0.304892	-0.262926	0.099580	0.218823	-0.309712	0.116663	0.280794	-0.368498	-0.153217	0.237050	-0.301296	-0.155532	
550	5.5000	0.025291	0.105283	0.152693	0.021261	-0.108941	0.225878	0.012512	-0.002073	-0.010862	0.017041	-0.145974	-0.074903	0.216285	0.014546	0.154934	0.174997	0.052971	0.075772	0.099133	0.030448	0.199547	0.099040	-0.091054	0.231881	0.036875	0.007001	-0.005800	0.232811	0.025879	0.116054	0.305157	-0.262790	0.099401	0.219028	-0.309639	0.116519	0.281355	-0.368191	-0.153465	0.237556	-0.301035	-0.155770	
551	5.5100	0.025333	0.105275	0.152691	0.021315	-0.108940	0.225859	0.012506	-0.002078	-0.010875	0.017010	-0.145978	-0.074890	0.216329	0.014563	0.154858	0.174976	0.052991	0.075746	0.099196	0.030429	0.199491	0.099138	-0.091042	0.231857	0.036864	0.007000	-0.005797	0.232782	0.025932	0.115972	0.305452	-0.262644	0.099248	0.219243	-0.309599	0.116334	0.281835	-0.367918	-0.153688	0.238056	-0.300780	-0.156004	
552	5.5200	0.025376	0.105270	0.152672	0.021367	-0.108934	0.225835	0.012509	-0.002086	-0.010901	0.016976	-0.145984	-0.074874	0.216355	0.014575	0.154771	0.174953	0.053019	0.075720	0.099267	0.030413	0.199427	0.099244	-0.091033	0.231775	0.036870	0.007015	-0.005814	0.232760	0.025991	0.115889	0.305778	-0.262483	0.099122	0.219542	-0.309601	0.115982	0.282258	-0.367695	-0.153887	0.238546	-0.300528	-0.156236	
